<?xml version="1.0" encoding="utf-8" ?>
<svg baseProfile="tiny" height="1406px" version="1.2" viewBox="0,0,1802,1406" width="1802px" xmlns="http://www.w3.org/2000/svg" xmlns:ev="http://www.w3.org/2001/xml-events" xmlns:xlink="http://www.w3.org/1999/xlink"><defs /><polygon fill="black" points="1352,328 1351,329 1351,330 1349,332 1349,333 1348,334 1348,335 1346,337 1346,338 1344,340 1344,341 1343,342 1343,343 1341,345 1341,346 1339,348 1339,349 1337,351 1337,352 1336,353 1336,354 1334,356 1334,357 1332,359 1332,360 1330,362 1330,363 1329,364 1329,365 1327,367 1327,368 1325,370 1325,371 1323,373 1323,374 1322,375 1322,376 1320,378 1320,379 1318,381 1318,382 1316,384 1316,385 1315,386 1315,387 1313,389 1313,390 1311,392 1311,393 1310,394 1310,395 1308,397 1308,398 1306,400 1306,401 1304,403 1304,404 1303,405 1303,406 1301,408 1301,409 1299,411 1299,412 1297,414 1297,415 1296,416 1296,417 1294,419 1294,420 1292,422 1292,423 1290,425 1290,426 1289,427 1289,428 1287,430 1287,431 1285,433 1285,434 1283,436 1283,437 1282,438 1282,439 1280,441 1280,442 1278,444 1278,445 1277,446 1277,447 1275,449 1275,450 1273,452 1273,453 1271,455 1271,456 1270,457 1270,458 1268,460 1268,461 1266,463 1266,464 1264,466 1264,467 1263,468 1263,469 1261,471 1261,472 1259,474 1259,475 1257,477 1257,478 1256,479 1256,480 1254,482 1254,483 1252,485 1252,486 1250,488 1250,489 1249,490 1249,491 1247,493 1247,494 1245,496 1245,497 1244,498 1244,499 1242,501 1242,502 1240,504 1240,505 1238,507 1238,508 1237,509 1237,510 1235,512 1235,513 1233,515 1233,516 1231,518 1231,519 1230,520 1230,521 1228,523 1228,524 1226,526 1226,527 1224,529 1224,530 1223,531 1223,532 1221,534 1221,535 1219,537 1219,538 1217,540 1217,541 1216,542 1216,543 1214,545 1214,546 1212,548 1212,549 1211,550 1211,551 1209,553 1209,554 1207,556 1207,557 1205,559 1205,560 1204,561 1204,562 1202,564 1202,565 1200,567 1200,568 1199,569 1199,570 1197,572 1197,573 1196,574 1196,575 1195,576 1195,577 1193,579 1193,580 1192,581 1192,582 1191,583 1191,584 1190,585 1190,586 1188,588 1188,589 1187,590 1187,591 1186,592 1186,593 1185,594 1185,595 1184,596 1184,597 1183,598 1183,599 1182,600 1182,601 1181,602 1181,603 1180,604 1180,605 1179,606 1179,607 1178,608 1178,609 1177,610 1177,612 1176,613 1176,614 1175,615 1175,616 1174,617 1174,618 1173,619 1173,621 1172,622 1172,623 1171,624 1171,625 1170,626 1170,628 1169,629 1169,630 1168,631 1168,633 1167,634 1167,635 1166,636 1166,638 1165,639 1165,640 1164,641 1164,643 1163,644 1163,646 1162,647 1162,649 1161,650 1161,651 1160,652 1160,654 1159,655 1159,657 1158,658 1158,660 1157,661 1157,664 1156,665 1156,667 1155,668 1155,670 1154,671 1154,673 1153,674 1153,677 1152,678 1152,681 1151,682 1151,684 1150,685 1150,688 1149,689 1149,692 1148,693 1148,696 1147,697 1147,701 1146,702 1146,705 1145,706 1145,710 1144,711 1144,715 1143,716 1143,721 1142,722 1142,727 1141,728 1141,733 1140,734 1140,740 1139,741 1139,749 1138,750 1138,759 1137,760 1137,772 1136,773 1136,826 1137,827 1137,840 1138,841 1138,850 1139,851 1139,858 1140,859 1140,865 1141,866 1141,872 1142,873 1142,878 1143,879 1143,883 1144,884 1144,888 1145,889 1145,893 1146,894 1146,898 1147,899 1147,902 1148,903 1148,906 1149,907 1149,911 1150,912 1150,914 1151,915 1151,918 1152,919 1152,922 1153,923 1153,925 1154,926 1154,929 1155,930 1155,932 1156,933 1156,935 1157,936 1157,938 1158,939 1158,941 1159,942 1159,944 1160,945 1160,947 1161,948 1161,950 1162,951 1162,953 1163,954 1163,956 1164,957 1164,958 1165,959 1165,961 1166,962 1166,964 1167,965 1167,966 1168,967 1168,969 1169,970 1169,971 1170,972 1170,974 1171,975 1171,976 1172,977 1172,978 1173,979 1173,981 1174,982 1174,983 1175,984 1175,985 1176,986 1176,987 1177,988 1177,990 1178,991 1178,992 1179,993 1179,994 1180,995 1180,996 1181,997 1181,998 1182,999 1182,1000 1183,1001 1183,1002 1184,1003 1184,1004 1185,1005 1185,1006 1186,1007 1186,1008 1187,1009 1187,1010 1188,1011 1188,1012 1189,1013 1189,1014 1190,1015 1190,1016 1192,1018 1192,1019 1193,1020 1193,1021 1194,1022 1194,1023 1195,1024 1195,1025 1196,1026 1196,1027 1197,1028 1197,1029 1198,1030 1198,1031 1199,1032 1199,1033 1201,1035 1201,1036 1202,1037 1202,1038 1203,1039 1203,1040 1204,1041 1204,1042 1205,1043 1205,1044 1206,1045 1206,1046 1207,1047 1207,1048 1208,1049 1208,1050 1210,1052 1210,1053 1211,1054 1211,1055 1212,1056 1212,1057 1213,1058 1213,1059 1215,1061 1215,1062 1216,1063 1216,1064 1217,1065 1217,1066 1219,1068 1219,1069 1220,1070 1220,1071 1222,1073 1222,1074 1223,1075 1223,1076 1225,1078 1225,1079 1226,1080 1226,1081 1228,1083 1228,1084 1229,1085 1229,1086 1231,1088 1231,1089 1233,1091 1233,1092 1235,1094 1235,1095 1237,1097 1237,1098 1238,1099 1238,1100 1240,1102 1240,1103 1242,1105 1242,1106 1245,1109 1245,1110 1247,1112 1247,1113 1249,1115 1249,1116 1251,1118 1251,1119 1254,1122 1254,1123 1256,1125 1256,1126 1259,1129 1259,1130 1262,1133 1262,1134 1265,1137 1265,1138 1268,1141 1268,1142 1272,1146 1272,1147 1276,1151 1276,1152 1280,1156 1280,1157 1284,1161 1284,1162 1290,1168 1290,1169 1296,1175 1296,1176 1305,1185 1305,1186 1323,1204 1323,1205 1329,1211 1330,1211 1348,1229 1349,1229 1358,1238 1359,1238 1365,1244 1366,1244 1372,1250 1373,1250 1377,1254 1378,1254 1383,1259 1384,1259 1387,1262 1388,1262 1392,1266 1393,1266 1396,1269 1397,1269 1400,1272 1401,1272 1404,1275 1405,1275 1408,1278 1409,1278 1411,1280 1412,1280 1415,1283 1416,1283 1418,1285 1419,1285 1421,1287 1422,1287 1425,1290 1426,1290 1428,1292 1429,1292 1431,1294 1432,1294 1434,1296 1435,1296 1437,1298 1438,1298 1439,1299 1440,1299 1442,1301 1443,1301 1445,1303 1446,1303 1448,1305 1449,1305 1450,1306 1451,1306 1453,1308 1454,1308 1455,1309 1456,1309 1458,1311 1459,1311 1460,1312 1461,1312 1463,1314 1464,1314 1465,1315 1466,1315 1467,1316 1468,1316 1470,1318 1471,1318 1472,1319 1473,1319 1474,1320 1475,1320 1477,1322 1478,1322 1479,1323 1480,1323 1481,1324 1482,1324 1483,1325 1484,1325 1485,1326 1486,1326 1488,1328 1489,1328 1490,1329 1491,1329 1492,1330 1493,1330 1494,1331 1495,1331 1496,1332 1497,1332 1498,1333 1499,1333 1500,1334 1501,1334 1502,1335 1503,1335 1504,1336 1505,1336 1506,1337 1507,1337 1508,1338 1509,1338 1510,1339 1511,1339 1512,1340 1513,1340 1514,1341 1515,1341 1516,1342 1517,1342 1518,1343 1520,1343 1521,1344 1522,1344 1523,1345 1524,1345 1525,1346 1526,1346 1527,1347 1528,1347 1529,1348 1531,1348 1532,1349 1533,1349 1534,1350 1535,1350 1536,1351 1537,1351 1538,1352 1540,1352 1541,1353 1542,1353 1543,1354 1545,1354 1546,1355 1547,1355 1548,1356 1549,1356 1550,1357 1552,1357 1553,1358 1554,1358 1555,1359 1557,1359 1558,1360 1559,1360 1560,1361 1562,1361 1563,1362 1565,1362 1566,1363 1567,1363 1568,1364 1570,1364 1571,1365 1573,1365 1574,1366 1576,1366 1577,1367 1578,1367 1579,1368 1581,1368 1582,1369 1584,1369 1585,1370 1587,1370 1588,1371 1590,1371 1591,1372 1593,1372 1594,1373 1596,1373 1597,1374 1599,1374 1600,1375 1603,1375 1604,1376 1606,1376 1607,1377 1609,1377 1610,1378 1612,1378 1613,1379 1616,1379 1617,1380 1619,1380 1620,1381 1623,1381 1624,1382 1627,1382 1628,1383 1630,1383 1631,1384 1634,1384 1635,1385 1638,1385 1639,1386 1642,1386 1643,1387 1647,1387 1648,1388 1651,1388 1652,1389 1655,1389 1656,1390 1660,1390 1661,1391 1665,1391 1666,1392 1670,1392 1671,1393 1675,1393 1676,1394 1680,1394 1681,1395 1686,1395 1687,1396 1692,1396 1693,1397 1699,1397 1700,1398 1705,1398 1706,1399 1713,1399 1714,1400 1721,1400 1722,1401 1730,1401 1731,1402 1741,1402 1742,1403 1755,1403 1756,1404 1778,1404 1779,1405 1796,1405 1796,938 1795,938 1794,937 1793,937 1792,936 1790,936 1789,935 1787,935 1786,934 1785,934 1784,933 1782,933 1781,932 1780,932 1779,931 1777,931 1776,930 1775,930 1774,929 1772,929 1771,928 1770,928 1769,927 1767,927 1766,926 1765,926 1764,925 1763,925 1762,924 1760,924 1759,923 1758,923 1757,922 1756,922 1755,921 1753,921 1752,920 1751,920 1750,919 1749,919 1748,918 1747,918 1746,917 1744,917 1743,916 1742,916 1741,915 1740,915 1739,914 1738,914 1737,913 1736,913 1735,912 1734,912 1733,911 1731,911 1730,910 1729,910 1728,909 1727,909 1726,908 1725,908 1724,907 1723,907 1722,906 1721,906 1720,905 1719,905 1718,904 1717,904 1716,903 1715,903 1714,902 1713,902 1712,901 1711,901 1710,900 1709,900 1708,899 1707,899 1706,898 1705,898 1704,897 1703,897 1702,896 1701,896 1700,895 1699,895 1698,894 1697,894 1696,893 1695,893 1694,892 1693,892 1691,890 1690,890 1689,889 1688,889 1687,888 1686,888 1685,887 1684,887 1683,886 1682,886 1681,885 1680,885 1678,883 1677,883 1676,882 1675,882 1674,881 1673,881 1672,880 1671,880 1669,878 1668,878 1667,877 1666,877 1665,876 1664,876 1662,874 1661,874 1660,873 1659,873 1657,871 1656,871 1655,870 1654,870 1653,869 1652,869 1650,867 1649,867 1648,866 1647,866 1645,864 1644,864 1643,863 1642,863 1640,861 1639,861 1637,859 1636,859 1635,858 1634,858 1632,856 1631,856 1630,855 1629,855 1627,853 1626,853 1624,851 1623,851 1621,849 1620,849 1619,848 1618,848 1616,846 1615,846 1613,844 1612,844 1610,842 1609,842 1607,840 1606,840 1604,838 1603,838 1601,836 1600,836 1598,834 1597,834 1595,832 1594,832 1592,830 1591,830 1589,828 1588,828 1586,826 1585,826 1582,823 1581,823 1579,821 1578,821 1576,819 1575,819 1572,816 1571,816 1569,814 1568,814 1565,811 1564,811 1562,809 1561,809 1558,806 1557,806 1554,803 1553,803 1551,801 1550,801 1547,798 1546,798 1543,795 1542,795 1539,792 1538,792 1535,789 1534,789 1530,785 1529,785 1526,782 1525,782 1522,779 1521,779 1517,775 1516,775 1512,771 1511,771 1507,767 1506,767 1502,763 1501,763 1497,759 1496,759 1492,755 1491,755 1486,750 1485,750 1481,746 1480,746 1475,741 1474,741 1468,735 1467,735 1462,730 1461,730 1454,723 1453,723 1447,717 1446,717 1439,710 1438,710 1430,702 1429,702 1420,693 1419,693 1410,684 1409,684 1397,672 1396,672 1381,657 1380,657 1358,635 1357,635 1351,629 1351,628 1353,626 1353,625 1358,620 1358,619 1363,614 1363,613 1365,611 1369,615 1370,615 1374,619 1375,619 1379,623 1380,623 1384,627 1385,627 1388,630 1389,630 1393,634 1394,634 1397,637 1398,637 1401,640 1402,640 1405,643 1406,643 1408,645 1409,645 1412,648 1413,648 1416,651 1417,651 1419,653 1420,653 1422,655 1423,655 1426,658 1427,658 1429,660 1430,660 1432,662 1433,662 1435,664 1436,664 1438,666 1439,666 1441,668 1442,668 1444,670 1445,670 1447,672 1448,672 1450,674 1451,674 1453,676 1454,676 1455,677 1456,677 1458,679 1459,679 1461,681 1462,681 1463,682 1464,682 1466,684 1467,684 1468,685 1469,685 1471,687 1472,687 1474,689 1475,689 1476,690 1477,690 1478,691 1479,691 1481,693 1482,693 1483,694 1484,694 1486,696 1487,696 1488,697 1489,697 1490,698 1491,698 1492,699 1493,699 1495,701 1496,701 1497,702 1498,702 1499,703 1500,703 1501,704 1502,704 1504,706 1505,706 1506,707 1507,707 1508,708 1509,708 1510,709 1511,709 1512,710 1513,710 1514,711 1515,711 1516,712 1517,712 1518,713 1519,713 1520,714 1521,714 1522,715 1523,715 1524,716 1525,716 1526,717 1527,717 1528,718 1529,718 1530,719 1531,719 1532,720 1533,720 1534,721 1535,721 1536,722 1537,722 1538,723 1539,723 1540,724 1541,724 1542,725 1543,725 1544,726 1546,726 1547,727 1548,727 1549,728 1550,728 1551,729 1552,729 1553,730 1554,730 1555,731 1557,731 1558,732 1559,732 1560,733 1561,733 1562,734 1564,734 1565,735 1566,735 1567,736 1568,736 1569,737 1571,737 1572,738 1573,738 1574,739 1575,739 1576,740 1578,740 1579,741 1580,741 1581,742 1583,742 1584,743 1585,743 1586,744 1588,744 1589,745 1591,745 1592,746 1593,746 1594,747 1596,747 1597,748 1599,748 1600,749 1601,749 1602,750 1604,750 1605,751 1607,751 1608,752 1610,752 1611,753 1612,753 1613,754 1615,754 1616,755 1618,755 1619,756 1621,756 1622,757 1624,757 1625,758 1627,758 1628,759 1630,759 1631,760 1634,760 1635,761 1637,761 1638,762 1640,762 1641,763 1643,763 1644,764 1647,764 1648,765 1650,765 1651,766 1654,766 1655,767 1657,767 1658,768 1661,768 1662,769 1664,769 1665,770 1668,770 1669,771 1672,771 1673,772 1676,772 1677,773 1680,773 1681,774 1684,774 1685,775 1688,775 1689,776 1693,776 1694,777 1697,777 1698,778 1702,778 1703,779 1706,779 1707,780 1711,780 1712,781 1716,781 1717,782 1721,782 1722,783 1726,783 1727,784 1732,784 1733,785 1737,785 1738,786 1743,786 1744,787 1749,787 1750,788 1756,788 1757,789 1762,789 1763,790 1770,790 1771,791 1777,791 1778,792 1785,792 1786,793 1794,793 1795,794 1796,794 1796,329 1797,328" /><polygon fill="black" points="963,175 957,181 956,181 944,193 943,193 936,200 935,200 930,205 929,205 924,210 923,210 919,214 918,214 915,217 914,217 911,220 910,220 907,223 906,223 903,226 902,226 899,229 898,229 896,231 895,231 892,234 891,234 889,236 888,236 886,238 885,238 883,240 882,240 880,242 879,242 877,244 876,244 875,245 874,245 872,247 871,247 869,249 868,249 867,250 866,250 864,252 863,252 861,254 860,254 859,255 858,255 857,256 856,256 854,258 853,258 852,259 851,259 850,260 849,260 847,262 846,262 845,263 844,263 843,264 842,264 841,265 840,265 838,267 837,267 836,268 835,268 834,269 833,269 832,270 831,270 830,271 829,271 828,272 827,272 826,273 825,273 824,274 823,274 822,275 821,275 820,276 819,276 818,277 817,277 816,278 815,278 814,279 813,279 812,280 810,280 809,281 808,281 807,282 806,282 805,283 804,283 803,284 802,284 801,285 799,285 798,286 797,286 796,287 795,287 794,288 792,288 791,289 790,289 789,290 787,290 786,291 785,291 784,292 782,292 781,293 780,293 779,294 777,294 776,295 775,295 774,296 772,296 771,297 769,297 768,298 767,298 766,299 764,299 763,300 761,300 760,301 758,301 757,302 755,302 754,303 752,303 751,304 749,304 748,305 746,305 745,306 743,306 742,307 739,307 738,308 736,308 735,309 733,309 732,310 729,310 728,311 725,311 724,312 722,312 721,313 718,313 717,314 714,314 713,315 710,315 709,316 706,316 705,317 701,317 700,318 697,318 696,319 692,319 691,320 687,320 686,321 682,321 681,322 677,322 676,323 671,323 670,324 665,324 664,325 658,325 657,326 650,326 649,327 642,327 641,328 632,328 631,329 620,329 619,330 603,330 602,331 0,331 0,795 22,795 23,794 44,794 45,793 61,793 62,792 75,792 76,791 89,791 90,790 100,790 101,789 111,789 112,788 122,788 123,787 131,787 132,786 140,786 141,785 149,785 150,784 157,784 158,783 165,783 166,782 172,782 173,781 179,781 180,780 186,780 187,779 193,779 194,778 200,778 201,777 206,777 207,776 212,776 213,775 218,775 219,774 224,774 225,773 230,773 231,772 235,772 236,771 241,771 242,770 246,770 247,769 251,769 252,768 256,768 257,767 261,767 262,766 266,766 267,765 271,765 272,764 276,764 277,763 281,763 282,762 285,762 286,761 290,761 291,760 294,760 295,759 299,759 300,758 303,758 304,757 307,757 308,756 312,756 313,755 316,755 317,754 320,754 321,753 324,753 325,752 328,752 329,751 332,751 333,750 336,750 337,749 340,749 341,748 344,748 345,747 347,747 348,746 351,746 352,745 355,745 356,744 359,744 360,743 362,743 363,742 366,742 367,741 369,741 370,740 373,740 374,739 376,739 377,738 380,738 381,737 383,737 384,736 387,736 388,735 390,735 391,734 394,734 395,733 397,733 398,732 400,732 401,731 403,731 404,730 407,730 408,729 410,729 411,728 413,728 414,727 416,727 417,726 419,726 420,725 423,725 424,724 426,724 427,723 429,723 430,722 432,722 433,721 435,721 436,720 438,720 439,719 441,719 442,718 444,718 445,717 447,717 448,716 450,716 451,715 453,715 454,714 456,714 457,713 458,713 459,712 461,712 462,711 464,711 465,710 467,710 468,709 470,709 471,708 473,708 474,707 475,707 476,706 478,706 479,705 481,705 482,704 484,704 485,703 486,703 487,702 489,702 490,701 492,701 493,700 494,700 495,699 497,699 498,698 500,698 501,697 502,697 503,696 505,696 506,695 508,695 509,694 510,694 511,693 513,693 514,692 515,692 516,691 518,691 519,690 521,690 522,689 523,689 524,688 526,688 527,687 528,687 529,686 531,686 532,685 533,685 534,684 536,684 537,683 538,683 539,682 541,682 542,681 543,681 544,680 546,680 547,679 548,679 549,678 550,678 551,677 553,677 554,676 555,676 556,675 558,675 559,674 560,674 561,673 562,673 563,672 565,672 566,671 567,671 568,670 569,670 570,669 572,669 573,668 574,668 575,667 576,667 577,666 579,666 580,665 581,665 582,664 583,664 584,663 586,663 587,662 588,662 589,661 590,661 591,660 592,660 593,659 595,659 596,658 597,658 598,657 599,657 600,656 601,656 602,655 604,655 605,654 606,654 607,653 608,653 609,652 610,652 611,651 612,651 613,650 615,650 616,649 617,649 618,648 619,648 620,647 621,647 622,646 623,646 624,645 626,645 627,644 628,644 629,643 630,643 631,642 632,642 633,641 634,641 635,640 636,640 637,639 638,639 639,638 640,638 641,637 643,637 644,636 645,636 646,635 647,635 648,634 649,634 650,633 651,633 652,632 653,632 654,631 655,631 656,630 657,630 658,629 659,629 660,628 661,628 662,627 663,627 664,626 665,626 666,625 667,625 668,624 669,624 670,623 672,623 673,622 674,622 675,621 676,621 677,620 678,620 679,619 680,619 681,618 682,618 683,617 684,617 685,616 686,616 687,615 688,615 689,614 691,614 692,615 692,616 693,617 693,618 694,619 694,620 695,621 695,622 696,623 696,624 698,626 698,627 699,628 699,629 700,630 698,632 697,632 695,634 694,634 692,636 691,636 688,639 687,639 685,641 684,641 682,643 681,643 679,645 678,645 676,647 675,647 673,649 672,649 669,652 668,652 666,654 665,654 663,656 662,656 660,658 659,658 657,660 656,660 654,662 653,662 651,664 650,664 648,666 647,666 645,668 644,668 642,670 641,670 639,672 638,672 636,674 635,674 633,676 632,676 630,678 629,678 627,680 626,680 624,682 623,682 621,684 620,684 618,686 617,686 615,688 614,688 612,690 611,690 610,691 609,691 607,693 606,693 604,695 603,695 601,697 600,697 598,699 597,699 595,701 594,701 593,702 592,702 590,704 589,704 587,706 586,706 584,708 583,708 581,710 580,710 579,711 578,711 576,713 575,713 573,715 572,715 571,716 570,716 568,718 567,718 565,720 564,720 563,721 562,721 560,723 559,723 557,725 556,725 555,726 554,726 552,728 551,728 549,730 548,730 547,731 546,731 544,733 543,733 542,734 541,734 539,736 538,736 536,738 535,738 534,739 533,739 531,741 530,741 529,742 528,742 526,744 525,744 524,745 523,745 521,747 520,747 519,748 518,748 516,750 515,750 514,751 513,751 511,753 510,753 509,754 508,754 507,755 506,755 504,757 503,757 502,758 501,758 499,760 498,760 497,761 496,761 495,762 494,762 492,764 491,764 490,765 489,765 488,766 487,766 485,768 484,768 483,769 482,769 480,771 479,771 478,772 477,772 476,773 475,773 474,774 473,774 471,776 470,776 469,777 468,777 467,778 466,778 464,780 463,780 462,781 461,781 460,782 459,782 458,783 457,783 456,784 455,784 453,786 452,786 451,787 450,787 449,788 448,788 447,789 446,789 445,790 444,790 442,792 441,792 440,793 439,793 438,794 437,794 436,795 435,795 434,796 433,796 432,797 431,797 429,799 428,799 427,800 426,800 425,801 424,801 423,802 422,802 421,803 420,803 419,804 418,804 417,805 416,805 415,806 414,806 413,807 412,807 411,808 410,808 409,809 408,809 407,810 406,810 405,811 404,811 403,812 402,812 401,813 400,813 399,814 398,814 397,815 396,815 395,816 394,816 393,817 392,817 391,818 390,818 389,819 388,819 387,820 386,820 385,821 384,821 383,822 382,822 381,823 380,823 379,824 378,824 377,825 376,825 375,826 374,826 373,827 372,827 371,828 370,828 369,829 368,829 367,830 366,830 365,831 363,831 362,832 361,832 360,833 359,833 358,834 357,834 356,835 355,835 354,836 353,836 352,837 350,837 349,838 348,838 347,839 346,839 345,840 344,840 343,841 342,841 341,842 339,842 338,843 337,843 336,844 335,844 334,845 333,845 332,846 330,846 329,847 328,847 327,848 326,848 325,849 323,849 322,850 321,850 320,851 319,851 318,852 316,852 315,853 314,853 313,854 312,854 311,855 309,855 308,856 307,856 306,857 304,857 303,858 302,858 301,859 300,859 299,860 297,860 296,861 295,861 294,862 292,862 291,863 290,863 289,864 287,864 286,865 285,865 284,866 282,866 281,867 279,867 278,868 277,868 276,869 274,869 273,870 272,870 271,871 269,871 268,872 266,872 265,873 264,873 263,874 261,874 260,875 258,875 257,876 255,876 254,877 253,877 252,878 250,878 249,879 247,879 246,880 244,880 243,881 241,881 240,882 238,882 237,883 236,883 235,884 233,884 232,885 230,885 229,886 227,886 226,887 224,887 223,888 221,888 220,889 218,889 217,890 214,890 213,891 211,891 210,892 208,892 207,893 205,893 204,894 202,894 201,895 199,895 198,896 195,896 194,897 192,897 191,898 189,898 188,899 185,899 184,900 182,900 181,901 178,901 177,902 175,902 174,903 171,903 170,904 168,904 167,905 164,905 163,906 160,906 159,907 157,907 156,908 153,908 152,909 149,909 148,910 145,910 144,911 141,911 140,912 137,912 136,913 133,913 132,914 129,914 128,915 125,915 124,916 121,916 120,917 116,917 115,918 112,918 111,919 108,919 107,920 103,920 102,921 98,921 97,922 94,922 93,923 89,923 88,924 84,924 83,925 79,925 78,926 74,926 73,927 69,927 68,928 64,928 63,929 59,929 58,930 53,930 52,931 48,931 47,932 42,932 41,933 36,933 35,934 30,934 29,935 24,935 23,936 18,936 17,937 12,937 11,938 5,938 4,939 0,939 0,1405 21,1405 22,1404 50,1404 51,1403 68,1403 69,1402 81,1402 82,1401 93,1401 94,1400 104,1400 105,1399 113,1399 114,1398 122,1398 123,1397 130,1397 131,1396 138,1396 139,1395 145,1395 146,1394 152,1394 153,1393 158,1393 159,1392 165,1392 166,1391 171,1391 172,1390 176,1390 177,1389 182,1389 183,1388 188,1388 189,1387 193,1387 194,1386 198,1386 199,1385 203,1385 204,1384 208,1384 209,1383 213,1383 214,1382 217,1382 218,1381 222,1381 223,1380 226,1380 227,1379 231,1379 232,1378 235,1378 236,1377 239,1377 240,1376 243,1376 244,1375 247,1375 248,1374 251,1374 252,1373 255,1373 256,1372 259,1372 260,1371 263,1371 264,1370 267,1370 268,1369 270,1369 271,1368 274,1368 275,1367 278,1367 279,1366 281,1366 282,1365 285,1365 286,1364 288,1364 289,1363 291,1363 292,1362 295,1362 296,1361 298,1361 299,1360 301,1360 302,1359 305,1359 306,1358 308,1358 309,1357 311,1357 312,1356 314,1356 315,1355 317,1355 318,1354 320,1354 321,1353 323,1353 324,1352 326,1352 327,1351 329,1351 330,1350 332,1350 333,1349 335,1349 336,1348 338,1348 339,1347 341,1347 342,1346 343,1346 344,1345 346,1345 347,1344 349,1344 350,1343 352,1343 353,1342 355,1342 356,1341 357,1341 358,1340 360,1340 361,1339 363,1339 364,1338 365,1338 366,1337 368,1337 369,1336 370,1336 371,1335 373,1335 374,1334 375,1334 376,1333 378,1333 379,1332 381,1332 382,1331 383,1331 384,1330 385,1330 386,1329 388,1329 389,1328 390,1328 391,1327 393,1327 394,1326 395,1326 396,1325 398,1325 399,1324 400,1324 401,1323 402,1323 403,1322 405,1322 406,1321 407,1321 408,1320 409,1320 410,1319 411,1319 412,1318 414,1318 415,1317 416,1317 417,1316 418,1316 419,1315 420,1315 421,1314 423,1314 424,1313 425,1313 426,1312 427,1312 428,1311 429,1311 430,1310 431,1310 432,1309 434,1309 435,1308 436,1308 437,1307 438,1307 439,1306 440,1306 441,1305 442,1305 443,1304 444,1304 445,1303 446,1303 447,1302 448,1302 449,1301 450,1301 451,1300 452,1300 453,1299 454,1299 455,1298 456,1298 457,1297 458,1297 459,1296 460,1296 461,1295 462,1295 463,1294 464,1294 465,1293 466,1293 467,1292 468,1292 469,1291 470,1291 471,1290 472,1290 473,1289 474,1289 475,1288 476,1288 477,1287 478,1287 479,1286 480,1286 481,1285 482,1285 483,1284 484,1284 486,1282 487,1282 488,1281 489,1281 490,1280 491,1280 492,1279 493,1279 494,1278 495,1278 497,1276 498,1276 499,1275 500,1275 501,1274 502,1274 503,1273 504,1273 506,1271 507,1271 508,1270 509,1270 510,1269 511,1269 513,1267 514,1267 515,1266 516,1266 517,1265 518,1265 520,1263 521,1263 522,1262 523,1262 525,1260 526,1260 527,1259 528,1259 530,1257 531,1257 532,1256 533,1256 535,1254 536,1254 537,1253 538,1253 540,1251 541,1251 543,1249 544,1249 545,1248 546,1248 548,1246 549,1246 551,1244 552,1244 553,1243 554,1243 556,1241 557,1241 559,1239 560,1239 562,1237 563,1237 565,1235 566,1235 568,1233 569,1233 571,1231 572,1231 574,1229 575,1229 577,1227 578,1227 580,1225 581,1225 583,1223 584,1223 586,1221 587,1221 589,1219 590,1219 593,1216 594,1216 596,1214 597,1214 600,1211 601,1211 603,1209 604,1209 607,1206 608,1206 610,1204 611,1204 614,1201 615,1201 618,1198 619,1198 622,1195 623,1195 626,1192 627,1192 631,1188 632,1188 635,1185 636,1185 640,1181 641,1181 644,1178 645,1178 649,1174 650,1174 655,1169 656,1169 660,1165 661,1165 666,1160 667,1160 673,1154 674,1154 680,1148 681,1148 688,1141 689,1141 698,1132 699,1132 710,1121 711,1121 763,1069 763,1068 775,1056 775,1055 783,1047 783,1046 790,1039 790,1038 797,1031 797,1030 802,1025 802,1024 807,1019 807,1018 812,1013 812,1012 816,1008 816,1007 821,1002 821,1001 824,998 824,997 828,993 828,992 832,988 832,987 835,984 835,983 838,980 838,979 841,976 841,975 844,972 844,971 847,968 847,967 850,964 850,963 853,960 853,959 855,957 855,956 858,953 858,952 860,950 860,949 863,946 863,945 865,943 865,942 867,940 867,939 870,936 870,935 872,933 872,932 874,930 874,929 876,927 876,926 878,924 878,923 880,921 880,920 882,918 882,917 884,915 884,914 886,912 886,911 888,909 888,908 890,906 890,905 892,903 892,902 893,901 893,900 895,898 895,897 897,895 897,894 899,892 899,891 900,890 900,889 902,887 902,886 904,884 904,883 906,881 906,880 907,879 907,878 909,876 909,875 911,873 911,872 913,870 913,869 915,867 915,866 916,865 916,864 918,862 918,861 920,859 920,858 922,856 922,855 923,854 923,853 925,851 925,850 927,848 927,847 929,845 929,844 930,843 930,842 932,840 932,839 934,837 934,836 936,834 936,833 938,831 938,830 939,829 939,828 941,826 941,825 943,823 943,822 945,820 945,819 946,818 946,817 948,815 948,814 950,812 950,811 952,809 952,808 954,806 954,805 955,804 955,803 957,801 957,800 959,798 959,797 961,795 961,794 962,793 962,792 964,790 964,789 966,787 966,786 968,784 968,783 969,782 969,781 971,779 971,778 973,776 973,775 975,773 975,772 977,770 977,769 978,768 978,767 980,765 980,764 982,762 982,761 984,759 984,758 985,757 985,756 987,754 987,753 989,751 989,750 991,748 991,747 992,746 992,745 994,743 994,742 996,740 996,739 998,737 998,736 1000,734 1000,733 1001,732 1001,731 1003,729 1003,728 1005,726 1005,725 1007,723 1007,722 1008,721 1008,720 1010,718 1010,717 1012,715 1012,714 1014,712 1014,711 1015,710 1015,709 1017,707 1017,706 1019,704 1019,703 1021,701 1021,700 1023,698 1023,697 1024,696 1024,695 1026,693 1026,692 1028,690 1028,689 1030,687 1030,686 1031,685 1031,684 1033,682 1033,681 1035,679 1035,678 1037,676 1037,675 1038,674 1038,673 1040,671 1040,670 1042,668 1042,667 1044,665 1044,664 1046,662 1046,661 1047,660 1047,659 1049,657 1049,656 1051,654 1051,653 1053,651 1053,650 1054,649 1054,648 1056,646 1056,645 1058,643 1058,642 1060,640 1060,639 1061,638 1061,637 1063,635 1063,634 1065,632 1065,631 1067,629 1067,628 1069,626 1069,625 1070,624 1070,623 1072,621 1072,620 1074,618 1074,617 1076,615 1076,614 1077,613 1077,612 1079,610 1079,609 1081,607 1081,606 1083,604 1083,603 1085,601 1085,600 1086,599 1086,598 1088,596 1088,595 1090,593 1090,592 1092,590 1092,589 1093,588 1093,587 1095,585 1095,584 1097,582 1097,581 1099,579 1099,578 1100,577 1100,576 1102,574 1102,573 1104,571 1104,570 1106,568 1106,567 1108,565 1108,564 1109,563 1109,562 1111,560 1111,559 1113,557 1113,556 1115,554 1115,553 1116,552 1116,551 1118,549 1118,548 1120,546 1120,545 1122,543 1122,542 1123,541 1123,540 1125,538 1125,537 1127,535 1127,534 1129,532 1129,531 1131,529 1131,528 1132,527 1132,526 1134,524 1134,523 1136,521 1136,520 1138,518 1138,517 1139,516 1139,515 1141,513 1141,512 1143,510 1143,509 1145,507 1145,506 1146,505 1146,504 1148,502 1148,501 1150,499 1150,498 1152,496 1152,495 1154,493 1154,492 1155,491 1155,490 1157,488 1157,487 1159,485 1159,484 1161,482 1161,481 1162,480 1162,479 1164,477 1164,476 1166,474 1166,473 1168,471 1168,470 1169,469 1169,468 1171,466 1171,465 1173,463 1173,462 1175,460 1175,459 1177,457 1177,456 1178,455 1178,454 1180,452 1180,451 1182,449 1182,448 1184,446 1184,445 1185,444 1185,443 1187,441 1187,440 1189,438 1189,437 1191,435 1191,434 1193,432 1193,431 1194,430 1194,429 1196,427 1196,426 1198,424 1198,423 1200,421 1200,420 1201,419 1201,418 1203,416 1203,415 1205,413 1205,412 1207,410 1207,409 1208,408 1208,407 1210,405 1210,404 1212,402 1212,401 1214,399 1214,398 1216,396 1216,395 1217,394 1217,393 1219,391 1219,390 1221,388 1221,387 1223,385 1223,384 1224,383 1224,382 1226,380 1226,379 1228,377 1228,376 1230,374 1230,373 1231,372 1231,371 1233,369 1233,368 1235,366 1235,365 1237,363 1237,362 1239,360 1239,359 1240,358 1240,357 1242,355 1242,354 1244,352 1244,351 1246,349 1246,348 1247,347 1247,346 1249,344 1249,343 1251,341 1251,340 1253,338 1253,337 1254,336 1254,335 1256,333 1256,332 1258,330 1258,329 1260,327 1260,326 1262,324 1262,323 1263,322 1263,321 1265,319 1265,318 1267,316 1267,315 1269,313 1269,312 1270,311 1270,310 1272,308 1272,307 1274,305 1274,304 1276,302 1276,301 1277,300 1277,299 1279,297 1279,296 1281,294 1281,293 1283,291 1283,290 1285,288 1285,287 1286,286 1286,285 1288,283 1288,282 1290,280 1290,279 1292,277 1292,276 1293,275 1293,274 1295,272 1295,271 1297,269 1297,268 1299,266 1299,265 1300,264 1300,263 1302,261 1302,260 1304,258 1304,257 1306,255 1306,254 1308,252 1308,251 1309,250 1309,249 1311,247 1311,246 1313,244 1313,243 1315,241 1315,240 1316,239 1316,238 1318,236 1318,235 1320,233 1320,232 1322,230 1322,229 1324,227 1324,226 1325,225 1325,224 1327,222 1327,221 1329,219 1329,218 1331,216 1331,215 1332,214 1332,213 1334,211 1334,210 1336,208 1336,207 1338,205 1338,204 1339,203 1339,202 1341,200 1341,199 1343,197 1343,196 1345,194 1345,193 1347,191 1347,190 1348,189 1348,188 1350,186 1350,185 1352,183 1352,182 1354,180 1354,179 1355,178 1355,177 1356,176 1356,175" /><polygon fill="black" points="1711,0 1710,1 1699,1 1698,2 1694,2 1693,3 1690,3 1689,4 1687,4 1686,5 1684,5 1683,6 1681,6 1680,7 1679,7 1678,8 1676,8 1675,9 1674,9 1673,10 1672,10 1670,12 1669,12 1668,13 1667,13 1665,15 1664,15 1662,17 1661,17 1658,20 1657,20 1644,33 1644,34 1641,37 1641,38 1639,40 1639,41 1637,43 1637,44 1636,45 1636,46 1635,47 1635,48 1634,49 1634,50 1633,51 1633,52 1632,53 1632,54 1631,55 1631,57 1630,58 1630,60 1629,61 1629,63 1628,64 1628,68 1627,69 1627,73 1626,74 1626,86 1625,87 1625,89 1626,90 1626,102 1627,103 1627,107 1628,108 1628,111 1629,112 1629,115 1630,116 1630,118 1631,119 1631,120 1632,121 1632,123 1633,124 1633,125 1634,126 1634,127 1635,128 1635,129 1636,130 1636,131 1637,132 1637,133 1639,135 1639,136 1641,138 1641,139 1644,142 1644,143 1658,157 1659,157 1662,160 1663,160 1665,162 1666,162 1668,164 1669,164 1670,165 1671,165 1672,166 1673,166 1674,167 1675,167 1676,168 1677,168 1678,169 1680,169 1681,170 1682,170 1683,171 1685,171 1686,172 1689,172 1690,173 1693,173 1694,174 1699,174 1700,175 1727,175 1728,174 1733,174 1734,173 1737,173 1738,172 1740,172 1741,171 1743,171 1744,170 1746,170 1747,169 1748,169 1749,168 1750,168 1751,167 1753,167 1755,165 1756,165 1757,164 1758,164 1759,163 1760,163 1762,161 1763,161 1766,158 1767,158 1772,153 1773,153 1777,149 1777,148 1783,142 1783,141 1785,139 1785,138 1787,136 1787,135 1789,133 1789,132 1790,131 1790,130 1791,129 1791,128 1792,127 1792,126 1793,125 1793,124 1794,123 1794,122 1795,121 1795,119 1796,118 1796,116 1797,115 1797,113 1798,112 1798,109 1799,108 1799,104 1800,103 1800,97 1801,96 1801,80 1800,79 1800,73 1799,72 1799,68 1798,67 1798,64 1797,63 1797,61 1796,60 1796,58 1795,57 1795,55 1794,54 1794,53 1793,52 1793,51 1792,50 1792,49 1791,48 1791,47 1790,46 1790,45 1789,44 1789,43 1787,41 1787,40 1785,38 1785,37 1783,35 1783,34 1777,28 1777,27 1774,24 1773,24 1768,19 1767,19 1764,16 1763,16 1761,14 1760,14 1758,12 1757,12 1756,11 1755,11 1754,10 1753,10 1752,9 1751,9 1750,8 1749,8 1748,7 1746,7 1745,6 1744,6 1743,5 1741,5 1740,4 1737,4 1736,3 1733,3 1732,2 1728,2 1727,1 1716,1 1715,0" /></svg>