<?xml version="1.0" encoding="utf-8"?>
<!-- Generator: Adobe Illustrator 28.0.0, SVG Export Plug-In . SVG Version: 6.00 Build 0)  -->
<svg version="1.1" id="Слой_1" xmlns="http://www.w3.org/2000/svg" xmlns:xlink="http://www.w3.org/1999/xlink" x="0px" y="0px"
	 width="1802px" height="1406px" viewBox="0 0 1802 1406" style="enable-background:new 0 0 1802 1406;" xml:space="preserve">
<style type="text/css">
	.st0{fill:#FFFFFF;}
</style>
<path class="st0" d="M0,0v331h421h121c45.4,0,90.2-0.3,135-8.4c72.4-13.1,141.2-40.4,203-80.3c20.3-13.1,39.8-27.8,58-43.6
	c6.2-5.3,11.9-11.1,18-16.4c2.7-2.4,5.6-5.4,9-6.7c3.6-1.3,8.2-0.6,12-0.6h24h81h275c-7.1,16.5-19.6,31.9-29.3,47
	c-18.6,29-37.2,57.9-55.6,87c-58.7,92.5-118.3,184.5-177,277c-48.7,76.8-98.2,153.2-147,230c-53.5,84.4-107,167.7-174.2,242
	c-155.5,171.8-367.1,292.5-595.8,332.2c-51.5,8.9-103.7,14.8-156,14.8c4.5,1.9,10.2,1,15,1h29h104h360h1249c-4.2-1.8-9.5-1-14-1
	c-6.3,0-12.7-0.7-19-1.1c-21.4-1.5-42.9-4.5-64-8.3c-66.2-11.9-131.8-33.8-191-65.9c-86.8-46.9-163-110.4-223.3-188.7
	c-25.2-32.7-46.3-67.7-66-104c-14.4-26.7-28.2-53.5-38.6-82c-24.7-67.5-32.6-140.8-23.8-212c6.5-52.2,22.9-103.3,47-150
	c10.7-20.8,23.9-40.2,36.3-60c31.8-50.8,63.7-101.8,96.4-152c8.2-12.6,16.3-25.3,24.2-38c2.7-4.4,5.9-12.4,10.9-14.4
	c3.7-1.5,9-0.6,12.9-0.6h26h91h314c-1.6,5.4-1,11.4-1,17v30v98v322c-10-2.4-20.8-2.9-31-4.2c-13.1-1.6-26.1-4-39-6.5
	c-48.5-9.1-96.1-22.6-142-40.6c-55-21.6-107.4-50.3-156-83.8c-21.9-15.1-41.9-33.3-64-48c-3.1,4.1-12.3,11.6-11.9,17
	c0.3,4.6,7.9,9,10.9,12c10.8,10.7,21.6,21.5,33,31.4c48.5,42.1,95.5,85.1,147,123.7c54.5,40.8,112.1,77.2,173,107.6
	c18.3,9.1,37,17.6,56,25.2c5,2,10,4.1,15,6c2.7,1,6.3,1.8,8,4.4c1.8,2.8,1,7.4,1,10.6v24v91v341h5V97c-2.5,5.8-2.7,12.9-4.7,19
	c-4.6,14-13.2,27.8-24.3,37.6c-11.2,9.9-24.3,17.5-39,20.8c-12.6,2.8-27.3,2.7-40,0c-49-10.6-78.4-62.7-65.2-110.3
	c4.2-15.2,13.1-28.1,24.2-39c7.4-7.2,16.4-13.5,26-17.4c10.5-4.3,20.7-6.6,32-6.6c-4.2-1.8-9.5-1-14-1h-29h-101h-351H0V0z"/>
<path d="M1711,0.4c-19.4,2.1-36.1,6.4-52,18.5c-44.8,34-43.7,103.6-1,138.6c19.1,15.7,43.8,20.6,68,18.3c10.5-1,20.7-4.6,30-9.5
	c9.2-4.9,17.3-11.5,24.1-19.4c29.8-34.7,29-89.4-4.3-121.7c-8.8-8.5-19.4-15.1-30.8-19.5C1734.9,2,1721.8-0.7,1711,0.4z"/>
<path class="st0" d="M1716,0c3.5,1.5,7.3,0.9,11,1.4c7.2,1.1,14.3,3.1,21,6c27.9,11.9,52.3,41.2,53,72.6c2.9-6.9,1-17.5,1-25V0H1716
	 M1709,21.4c-13.3,1.8-25.1,5.2-36,13.3c-36.3,27-34.7,83.3,2,109.2c14.6,10.3,32.7,13.2,50,10.8c9.2-1.3,18.3-4.9,26-10.1
	c7.5-5.1,13.7-11.1,18.8-18.6c24.4-36.1,6.8-86.2-33.8-100.9C1727.7,22.1,1717.8,20.3,1709,21.4z"/>
<path d="M1680,41v94h21v-33c3.8,0,9.3-1,12.8,1c2.8,1.6,4.4,5.2,5.9,8l9.1,16c1.3,2.3,2.6,5.4,4.8,7c2.1,1.4,5,1,7.4,1h16
	c-4.8-13-14.5-24.7-21-37c19.4-9.2,20.2-40.5,2-51.5C1722.2,36.9,1697.7,41,1680,41z"/>
<path class="st0" d="M1701,60v24c7.1,0,16.5,1.4,23-2.2c8.1-4.5,7-16.4-1-20.3C1716.7,58.5,1707.8,60,1701,60z"/>
<path d="M0,331v465c38.4,0,76.8-3.1,115-6.8C241.1,777,365,748.5,484,705c49.2-18,97.4-38.4,145-60.3c15.4-7.1,30.6-14.9,46-22
	c5.7-2.6,11-6,17-7.7c1.7,5.8,4.9,10.9,8,16c-7.5,3.5-14.1,9.1-21,13.7c-14.4,9.6-28.6,19.4-43,29c-40.3,26.9-81.3,53-123,77.7
	c-118.6,70.3-243.9,127.9-378,161.5c-27.5,6.9-55.2,12.5-83,17.7c-17.1,3.2-34.7,7-52,8.4v467c293.4,0,577.1-129.6,773.8-347
	c67.3-74.3,120.7-157.6,174.2-242c51.1-80.5,102.9-160.5,154-241c58.7-92.5,118.3-184.5,177-277c18-28.4,36.5-56.5,54.4-85
	c7.6-12.1,19.5-25.2,23.6-39h-276h-81h-24c-3.8,0-8.4-0.7-12,0.6c-3.4,1.2-6.3,4.3-9,6.7c-6.1,5.4-11.8,11.1-18,16.4
	c-18.2,15.8-37.7,30.5-58,43.6c-61.8,39.8-130.6,67.2-203,80.3c-44.8,8.1-89.6,8.4-135,8.4H420L0,331 M1797,1406v-344v-90v-24
	c0-2.8,0.7-6.9-1-9.4c-2-2.8-6.9-3.7-10-4.9c-8.7-3.4-17.4-7-26-10.6c-29.4-12.6-57.9-27-86-42.5c-82.3-45.2-157.3-103.6-228-165
	c-23.8-20.7-47.5-41.7-70-63.7c-5.3-5.2-10.4-10.7-16-15.7c-2.1-1.9-5.8-4.1-6.1-7.3c-0.5-5.3,8.7-12.3,11.1-17
	c22.5,20.7,48.6,38.4,74,55.3c69.8,46.5,146.8,82.4,228,103.8c27.3,7.2,55.1,13.1,83,17.5c15.6,2.4,31.5,3.5,47,6.4V477v-99
	c0-15.9-2.7-34.5,1-50h-325h-87h-23c-3.3,0-7.8-0.7-10.7,1c-4.6,2.8-7.6,10.5-10.4,15c-7.4,11.7-14.8,23.4-22.3,35
	c-28.2,43.3-55.7,87.2-83.1,131c-19.8,31.6-41,62.3-57.3,96c-25.7,53.2-39.2,111.3-43.2,170c-4.4,64.1,7.6,130.3,30.7,190
	c9.8,25.3,22.8,49,35.4,73c32.9,62.3,74,120,123.9,169.9C1450.1,1332.9,1621.5,1406,1797,1406z"/>
<path class="st0" d="M0,796v143c17.9-0.8,36.4-5.4,54-8.6c36.3-6.6,72.4-14.6,108-24.3c92.1-24.9,180.7-61.4,265-105.9
	C521.9,750.1,611.1,691,700,631l-8-16c-7.1,1.3-13.4,5.7-20,8.6c-18.6,8.1-36.6,17.7-55,26.1c-47.5,21.8-95.9,41.3-145,59.3
	c-115.1,42.1-236.1,68.4-358,80.2C76.1,792.8,38.1,796,0,796z"/>
</svg>
